PathFileType	4	(X/Y/Z)	D:\TRACE\spotREDO_2-26-24\spot_justBody_Motion_1_2-v60.trc
DataRate	CameraRate	NumFrames	NumMarkers	Units	OrigDataRate	OrigDataStartFrame	OrigNumFrames
100.00	100.00	      17	9	mm	100.00	5251	      7000
Frame#	Time	front left toe			Front right toe			aft left toe			aft right toe			Arm			FL body			FR body			AL Body			AR Body			
		X1	Y1	Z1	X2	Y2	Z2	X3	Y3	Z3	X4	Y4	Z4	X5	Y5	Z5	X6	Y6	Z6	X7	Y7	Z7	X8	Y8	Z8	X9	Y9	Z9	

5251	52.500	-268.67493	18.10262	-89.23660	223.79070	22.47245	-220.03955	-169.39211	22.73192	315.04498	332.02982	34.36563	312.21393	-73.65575	800.13953	-348.37424	-150.42415	540.78345	-304.84476	3.40030	545.78717	-331.12491	-12.64500	575.80444	567.31628	133.88408	577.17438	545.23083	
5252	52.510	-267.95770	18.07722	-89.33329	225.58925	22.84278	-219.73830	-168.76665	22.53385	314.91776	332.65125	34.21663	312.18781	-74.17567	800.36591	-348.78525	-150.73683	540.87079	-305.17459	3.12152	546.00940	-331.48199	-12.99084	575.62726	566.99188	133.81326	577.01855	544.77051	
5253	52.520	-266.84790	17.93749	-89.21097	226.26895	23.11795	-219.75786	-167.38518	22.13134	315.17200	333.42709	34.06894	312.19452	-74.54559	800.55823	-349.18079	-151.10143	541.12115	-305.71140	2.78970	546.25854	-331.90985	-13.32759	575.35992	566.58502	133.56725	576.71423	544.27386	
5254	52.530	-266.18005	17.99384	-89.11020	226.79698	23.36478	-219.79544	-166.09048	21.59618	315.35178	334.44601	34.06741	312.37933	-74.73969	800.70917	-349.29510	-151.20064	541.37836	-306.08746	2.35075	546.50146	-332.37177	-13.61009	575.16034	566.16840	133.27496	576.54376	543.89862	
5255	52.540	-265.38889	18.08099	-88.96419	228.39548	23.98116	-219.88283	-165.43268	21.52367	315.44684	335.13779	33.73183	312.45367	-74.81465	800.83679	-349.54211	-152.04153	541.84937	-307.21695	1.88177	546.71350	-332.87872	-13.76939	574.93909	565.91187	132.96269	576.26874	543.55170	
5256	52.550	-264.11700	18.05247	-88.78146	229.25160	24.17354	-219.63217	-165.07632	21.37082	315.42017	335.81735	33.65873	312.47229	-75.23516	801.17682	-350.02655	-152.37439	541.91791	-307.49255	1.55628	546.85175	-333.27670	-14.24463	574.57452	565.27216	133.09250	576.15112	543.85925	
5257	52.560	-263.73004	18.16445	-88.85178	229.86705	24.47630	-219.49832	-164.06447	21.11044	315.53073	336.85840	33.64004	312.49081	-75.77444	801.50085	-350.60968	-152.42352	541.86334	-307.65173	1.23920	546.99896	-333.69199	-14.58688	574.41547	564.79749	132.11444	575.72449	542.34467	
5258	52.570	-262.59210	17.87591	-88.78489	230.42509	24.02850	-219.75587	-163.16216	20.87584	315.62680	337.54150	33.45818	312.49707	-76.36116	801.59021	-350.91595	-152.91951	542.14142	-308.08133	0.64803	547.18915	-334.26254	-14.87129	574.17200	564.20898	131.89076	575.43481	541.85376	
5259	52.580	-261.95901	17.92431	-88.76050	230.91530	24.48642	-219.62079	-161.81769	20.48924	315.95639	338.11725	33.10236	312.50223	-76.53279	801.77936	-351.18265	-153.76453	542.57678	-309.04993	0.28487	547.24591	-334.76791	-15.05847	573.97913	563.85022	131.68431	575.29639	541.58679	
5260	52.590	-261.20734	18.25036	-88.45139	231.82751	24.52136	-219.63458	-161.40764	20.59735	315.98453	339.11523	33.15903	312.66632	-76.90755	802.04352	-351.63309	-154.15341	542.87817	-309.36047	-0.17531	547.44147	-335.20212	-15.30898	573.89386	563.38104	131.16113	575.17303	540.95538	
5261	52.600	-259.99844	17.89712	-88.35464	232.56184	24.68331	-219.43521	-160.47417	20.16213	316.16257	339.67493	33.01782	312.67285	-77.18233	802.20831	-352.14099	-154.12564	542.77643	-309.47668	-0.55396	547.55225	-335.68237	-15.68969	573.60565	562.77106	130.65369	574.79407	540.46729	
5262	52.610	-259.28607	17.90204	-88.45558	233.46819	24.96954	-219.32074	-159.52553	19.69038	316.18454	340.56012	32.88510	312.62415	-77.40867	802.22931	-352.48999	-155.02960	543.19745	-310.72974	-0.90016	547.75671	-336.21396	-16.29508	573.50909	561.94806	130.53343	574.53864	540.03015	
5263	52.620	-258.46231	17.92254	-88.28145	235.12701	25.84549	-219.52837	-158.76642	19.32803	316.21219	341.46722	32.59936	312.60596	-77.67313	802.23962	-352.98511	-155.28006	543.17297	-310.99667	-1.38402	547.90527	-336.78809	-16.54666	573.15594	561.74225	130.30638	574.24805	539.36731	
5264	52.630	-257.69427	18.05651	-88.30493	235.48703	26.03105	-219.40819	-157.97505	19.07007	316.35416	342.59369	32.58229	312.60715	-77.99347	802.41760	-353.43002	-155.25192	542.97565	-310.88614	-1.68921	548.06714	-337.32822	-16.96433	572.94806	561.28815	129.78307	574.06726	538.86487	
5265	52.640	-257.11035	18.15343	-88.23624	236.25766	26.22750	-219.25195	-156.99838	18.75618	316.72784	342.89453	32.42976	312.79636	-78.41273	802.57684	-353.98788	-156.69563	543.86938	-312.52847	-2.25616	548.17206	-337.99368	-17.59442	572.89569	560.25470	129.36340	573.87048	538.27081	
5266	52.650	-255.91013	17.98343	-88.06219	237.30359	26.52954	-219.17838	-155.96719	18.43364	316.78763	344.17300	32.38843	312.60989	-78.64666	802.66608	-354.33224	-157.06390	543.84369	-312.90976	-2.65888	548.24091	-338.64157	-17.61295	572.51074	560.02551	129.20415	573.68018	537.57080	
5267	52.660	-255.14178	17.86228	-87.94899	237.44688	26.28936	-219.21393	-155.21960	18.22150	316.63229	344.50668	31.80201	312.80859	-79.07693	802.89136	-354.92303	-156.93747	543.49872	-312.86349	-3.12821	548.21973	-339.28488	-18.17382	572.38733	559.37665	128.35403	573.35223	536.96985	
